<?xml version="1.0" encoding="UTF-8"?>
<svg version="1.1" xmlns="http://www.w3.org/2000/svg" width="165" height="37">
<path d="M0 0 C10.46484632 -0.36934752 10.46484632 -0.36934752 12.828125 1.26171875 C14.2228874 3.3306163 14.43279978 4.51828539 14.4375 7 C14.45683594 7.680625 14.47617187 8.36125 14.49609375 9.0625 C14 11 14 11 12.33203125 12.73828125 C9.43686689 14.30467671 7.52123036 14.30432966 4.25 14.1875 C3.26515625 14.16042969 2.2803125 14.13335937 1.265625 14.10546875 C0.51796875 14.07066406 -0.2296875 14.03585938 -1 14 C-1 13.34 -1 12.68 -1 12 C-0.34 12 0.32 12 1 12 C0.67 8.04 0.34 4.08 0 0 Z M5 2 C5 5.3 5 8.6 5 12 C6.32 11.67 7.64 11.34 9 11 C9.80967438 8.08517222 10.21845993 6.53886783 9.0625 3.6875 C8.711875 3.130625 8.36125 2.57375 8 2 C7.01 2 6.02 2 5 2 Z " fill="#000000" transform="translate(2,15)"/>
<path d="M0 0 C3.96 0 7.92 0 12 0 C12.33 1.32 12.66 2.64 13 4 C10.69 3.34 8.38 2.68 6 2 C6 3.32 6 4.64 6 6 C6.66 6 7.32 6 8 6 C8 5.34 8 4.68 8 4 C8.66 4 9.32 4 10 4 C10 5.98 10 7.96 10 10 C9.34 10 8.68 10 8 10 C8 9.34 8 8.68 8 8 C7.34 8 6.68 8 6 8 C6 9.32 6 10.64 6 12 C9.93075644 11.42547254 9.93075644 11.42547254 13 9 C13.33 9.66 13.66 10.32 14 11 C13.67 11.99 13.34 12.98 13 14 C9.04 14 5.08 14 1 14 C1.33 10.04 1.66 6.08 2 2 C1.34 2 0.68 2 0 2 C0 1.34 0 0.68 0 0 Z " fill="#000000" transform="translate(17,15)"/>
<path d="M0 0 C2.66355234 -0.39169887 4.39224373 -0.40564529 6.66796875 1.11328125 C8.1510888 2.36389317 9.57954352 3.67864514 11 5 C11 3.35 11 1.7 11 0 C12.65 0 14.3 0 16 0 C15.88617347 1.95901454 15.75858875 3.9172338 15.625 5.875 C15.55539063 6.96554688 15.48578125 8.05609375 15.4140625 9.1796875 C15 12 15 12 13 14 C10.69 12.02 8.38 10.04 6 8 C6 9.98 6 11.96 6 14 C4.35 14 2.7 14 1 14 C1.33 10.04 1.66 6.08 2 2 C1.34 2 0.68 2 0 2 C0 1.34 0 0.68 0 0 Z " fill="#000000" transform="translate(31,15)"/>
<path d="M0 0 C2.31 0 4.62 0 7 0 C7 4.62 7 9.24 7 14 C4.69 14 2.38 14 0 14 C0 9.38 0 4.76 0 0 Z " fill="#000000" transform="translate(48,15)"/>
<path d="M0 0 C2.8125 -0.3125 2.8125 -0.3125 6 0 C7.875 2.5 7.875 2.5 9 5 C9.5878125 3.7625 9.5878125 3.7625 10.1875 2.5 C10.785625 1.675 11.38375 0.85 12 0 C13.65 0 15.3 0 17 0 C17 4.62 17 9.24 17 14 C14.69 14 12.38 14 10 14 C10 12.68 10 11.36 10 10 C9.34 11.32 8.68 12.64 8 14 C7.01 12.68 6.02 11.36 5 10 C5 11.32 5 12.64 5 14 C3.35 14 1.7 14 0 14 C0.165 13.484375 0.33 12.96875 0.5 12.4375 C1.38504441 8.12290849 1.39291284 4.17873852 0 0 Z " fill="#000000" transform="translate(56,15)"/>
<path d="M0 0 C1.588125 -0.061875 3.17625 -0.12375 4.8125 -0.1875 C6.15248047 -0.23970703 6.15248047 -0.23970703 7.51953125 -0.29296875 C10 0 10 0 11.84375 1.34375 C13 3 13 3 12.6875 5.6875 C12.460625 6.450625 12.23375 7.21375 12 8 C10.02 8.33 8.04 8.66 6 9 C6.33 10.65 6.66 12.3 7 14 C4.69 14 2.38 14 0 14 C0 9.38 0 4.76 0 0 Z M6 2 C6 3.65 6 5.3 6 7 C6.66 7 7.32 7 8 7 C8 5.35 8 3.7 8 2 C7.34 2 6.68 2 6 2 Z " fill="#000000" transform="translate(84,15)"/>
<path d="M0 0 C3.63 0 7.26 0 11 0 C11.33 1.32 11.66 2.64 12 4 C9.69 3.34 7.38 2.68 5 2 C5 3.32 5 4.64 5 6 C5.66 6 6.32 6 7 6 C7 5.34 7 4.68 7 4 C7.66 4 8.32 4 9 4 C9 5.98 9 7.96 9 10 C8.34 10 7.68 10 7 10 C7 9.34 7 8.68 7 8 C6.34 8 5.68 8 5 8 C5.33 8.99 5.66 9.98 6 11 C7.32 11 8.64 11 10 11 C10.33 10.34 10.66 9.68 11 9 C11.66 9 12.32 9 13 9 C12.67 10.65 12.34 12.3 12 14 C8.04 14 4.08 14 0 14 C0 9.38 0 4.76 0 0 Z " fill="#000000" transform="translate(98,15)"/>
<path d="M0 0 C3.96 0 7.92 0 12 0 C12.33 1.32 12.66 2.64 13 4 C12.01 4 11.02 4 10 4 C10 3.34 10 2.68 10 2 C9.34 2 8.68 2 8 2 C8 5.3 8 8.6 8 12 C8.66 12.33 9.32 12.66 10 13 C9 14 9 14 5.4375 14.0625 C4.303125 14.041875 3.16875 14.02125 2 14 C2 10.37 2 6.74 2 3 C1.01 3.33 0.02 3.66 -1 4 C-0.67 2.68 -0.34 1.36 0 0 Z " fill="#000000" transform="translate(112,15)"/>
<path d="M0 0 C1.859375 0.09765625 1.859375 0.09765625 4 1 C5.703125 3.43359375 5.703125 3.43359375 7.25 6.4375 C7.77078125 7.42621094 8.2915625 8.41492188 8.828125 9.43359375 C10 12 10 12 10 14 C7.69 14 5.38 14 3 14 C3 13.34 3 12.68 3 12 C0.1490712 12.7018576 0.1490712 12.7018576 -1 14 C-2.66617115 14.04063832 -4.33388095 14.042721 -6 14 C-6 13.34 -6 12.68 -6 12 C-5.34 12 -4.68 12 -4 12 C-3.79503906 11.21753906 -3.59007813 10.43507813 -3.37890625 9.62890625 C-3.10949219 8.61699219 -2.84007812 7.60507812 -2.5625 6.5625 C-2.29566406 5.55316406 -2.02882812 4.54382813 -1.75390625 3.50390625 C-1 1 -1 1 0 0 Z M0 6 C0 6.99 0 7.98 0 9 C0.99 8.67 1.98 8.34 3 8 C2.67 7.34 2.34 6.68 2 6 C1.34 6 0.68 6 0 6 Z " fill="#000000" transform="translate(131,15)"/>
<path d="M0 0 C1.98 0 3.96 0 6 0 C6.33 0.99 6.66 1.98 7 3 C7.33 2.01 7.66 1.02 8 0 C9.98 0 11.96 0 14 0 C14 0.66 14 1.32 14 2 C13.01 2.33 12.02 2.66 11 3 C11.55728913 6.34373475 12.35173889 9.03312999 14 12 C14.66 12 15.32 12 16 12 C16 12.66 16 13.32 16 14 C13.1875 14.25 13.1875 14.25 10 14 C8.125 12 8.125 12 7 10 C7 11.32 7 12.64 7 14 C4.69 14 2.38 14 0 14 C0 9.38 0 4.76 0 0 Z " fill="#000000" transform="translate(142,15)"/>
<path d="M0 0 C3.3 0 6.6 0 10 0 C10 0.99 10 1.98 10 3 C6.7 3 3.4 3 0 3 C0 2.01 0 1.02 0 0 Z " fill="#000000" transform="translate(73,30)"/>
</svg>
